# xmcd
#
# Track frame offsets: 
#        150
#        17577
#        30281
#        48650
#        67256
#        82817
#        94662
#        106587
#        111082
#        132230
#        145551
#
# Disc length: 2224 seconds
#
# Revision: 0
# Processed by: cddbd v1.5.2PL0 Copyright (c) Steve Scherf et al.
# Submitted via: ExactAudioCopyFreeDBPlugin 1.0
#
DISCID=8108ae0b
DTITLE=The Richards - Dark Stuff Blues
DYEAR=2010
DGENRE=
TTITLE0=House of Spirits #1
TTITLE1=Dark Stuff Blues
TTITLE2=Rocketship
TTITLE3=Make This Moment
TTITLE4=Swinging a Chain
TTITLE5=International Submarine Band Blues
TTITLE6=Mellow Down Easy
TTITLE7=Radio Redress
TTITLE8=Letter From Casey
TTITLE9=Hat Shop
TTITLE10=House of Spirits #2
EXTD=
EXTT0=
EXTT1=
EXTT2=
EXTT3=
EXTT4=
EXTT5=
EXTT6=
EXTT7=
EXTT8=
EXTT9=
EXTT10=
PLAYORDER=
